<svg xmlns="http://www.w3.org/2000/svg" version="1.1" xmlns:xlink="http://www.w3.org/1999/xlink" xmlns:svgjs="http://svgjs.dev/svgjs" width="2000" height="1500" viewBox="0 0 2000 1500"><rect width="2000" height="1500" fill="#ffffff"></rect><g transform="matrix(0.75,0,0,0.75,249.090909090909,415.2335535606592)"><svg viewBox="0 0 396 177" data-background-color="#ffffff" preserveAspectRatio="xMidYMid meet" height="893" width="2000" xmlns="http://www.w3.org/2000/svg" xmlns:xlink="http://www.w3.org/1999/xlink"><g id="tight-bounds" transform="matrix(1,0,0,1,0.2400000000000091,-0.028688287027520687)"><svg viewBox="0 0 395.52 177.05727611318602" height="177.05727611318602" width="395.52"><g><svg viewBox="0 0 776.145225344636 347.4468028614892" height="177.05727611318602" width="395.52"><g transform="matrix(1,0,0,1,380.62522534463596,138.58808220817775)"><svg viewBox="0 0 395.52 70.27063844513368" height="70.27063844513368" width="395.52"><g id="textblocktransform"><svg viewBox="0 0 395.52 70.27063844513368" height="70.27063844513368" width="395.52" id="textblock"><g><svg viewBox="0 0 395.52 70.27063844513368" height="70.27063844513368" width="395.52"><g transform="matrix(1,0,0,1,0,0)"><svg width="395.52" viewBox="2.83 -33.77 192.63 34.230000000000004" height="70.27063844513368" data-palette-color="#ee3e38"><path d="M18.81-30.28L18.81-30.28Q13.32-30.28 10.15-26.62 6.98-22.95 6.98-16.52 6.98-10.09 10.04-6.53 13.09-2.98 18.76-2.98L18.76-2.98Q22.3-2.98 26.72-4.22L26.72-4.22 26.72-0.83Q23.26 0.46 18.17 0.46L18.17 0.46Q10.82 0.46 6.83-3.99L6.83-3.99Q2.83-8.49 2.83-16.68L2.83-16.68Q2.81-20.48 3.93-23.67 5.06-26.87 7.13-29.1 9.2-31.32 12.21-32.55 15.22-33.77 18.86-33.75L18.86-33.75Q24.14-33.75 28.01-31.83L28.01-31.83 26.37-28.51Q22.65-30.28 18.81-30.28ZM35.29-4.02Q31.29-8.54 31.29-16.7 31.29-24.85 35.3-29.31 39.3-33.77 46.57-33.77 53.84-33.77 57.87-29.23 61.9-24.7 61.9-16.7 61.9-8.7 57.86-4.12 53.81 0.46 46.55 0.46 39.28 0.46 35.29-4.02L35.29-4.02ZM55-26.87Q52.2-30.33 46.67-30.33 41.15-30.33 38.27-26.85 35.39-23.36 35.39-16.65 35.39-9.93 38.27-6.43 41.15-2.93 46.66-2.93 52.17-2.93 54.99-6.41 57.81-9.88 57.81-16.65 57.81-23.41 55-26.87ZM91.38-13.98L83.94-13.98 83.94-17.42 95.24-17.42 95.24-1.24Q92.51-0.38 89.78 0.04 87.05 0.46 83.54 0.46L83.54 0.46Q75.96 0.46 71.76-4.03 67.56-8.52 67.56-16.63L67.56-16.63Q67.51-21.79 69.62-25.7 71.73-29.6 75.68-31.71 79.62-33.82 84.83-33.75L84.83-33.75Q90.16-33.75 94.74-31.77L94.74-31.77 93.25-28.36Q88.77-30.28 84.58-30.28L84.58-30.28Q78.48-30.28 75.07-26.67 71.66-23.05 71.66-16.47 71.66-9.88 74.96-6.41 78.26-2.93 84.63-2.93L84.63-2.93Q88.01-2.93 91.38-3.74L91.38-3.74 91.38-13.98ZM125.6-14.18L125.6-33.27 129.21-33.27 129.21 0 124.79 0 106.62-27.91 106.44-27.91Q106.79-22.83 106.79-18.91L106.79-18.91 106.79 0 103.23 0 103.23-33.27 107.6-33.27 125.73-5.46 125.9-5.46Q125.52-12.01 125.6-14.18L125.6-14.18ZM142.23-33.27L142.23 0 138.36 0 138.36-33.27 142.23-33.27ZM170.11-8.85L170.11-8.85Q170.11-4.45 166.94-2 163.76 0.46 158.06 0.46 152.36 0.46 149.18-1.06L149.18-1.06 149.18-4.8Q153.68-2.93 158.43-2.93L158.43-2.93Q162.25-2.93 164.23-4.37 166.22-5.81 166.22-8.49L166.22-8.49Q166.22-10.21 165.52-11.3 164.83-12.39 163.18-13.35 161.54-14.31 158.25-15.47L158.25-15.47Q153.63-17.11 151.62-19.39 149.61-21.66 149.61-25.43 149.61-29.2 152.49-31.47L152.49-31.47Q155.42-33.75 160.26-33.75 165.1-33.75 169.27-31.93L169.27-31.93 168.06-28.54Q163.94-30.28 160.07-30.28L160.07-30.28Q156.99-30.28 155.26-28.96 153.53-27.63 153.53-25.3L153.53-25.3Q153.53-23.53 154.15-22.47 154.77-21.41 156.31-20.42L156.31-20.42Q157.9-19.46 160.96-18.4L160.96-18.4Q166.22-16.53 168.14-14.38L168.14-14.38Q170.11-12.26 170.11-8.85ZM180.8-3.46L195.46-3.46 195.46 0 176.93 0 176.93-33.27 195.46-33.27 195.46-29.83 180.8-29.83 180.8-19.11 194.58-19.11 194.58-15.7 180.8-15.7 180.8-3.46Z" opacity="1" transform="matrix(1,0,0,1,0,0)" fill="#ee3e38" class="wordmark-text-0" data-fill-palette-color="primary" id="text-0"></path></svg></g></svg></g></svg></g></svg></g><g><svg viewBox="0 0 347.4468028614892 347.4468028614892" height="347.4468028614892" width="347.4468028614892"><g><svg></svg></g><g id="icon-0"><svg viewBox="0 0 347.4468028614892 347.4468028614892" height="347.4468028614892" width="347.4468028614892"><g><path d="M0 173.723c0-95.945 77.779-173.723 173.723-173.723 95.945 0 173.723 77.779 173.724 173.723 0 95.945-77.779 173.723-173.724 173.724-95.945 0-173.723-77.779-173.723-173.724zM173.723 341.11c92.445 0 167.386-74.941 167.387-167.387 0-92.445-74.941-167.386-167.387-167.386-92.445 0-167.386 74.941-167.386 167.386 0 92.445 74.941 167.386 167.386 167.387z" data-fill-palette-color="accent" fill="#fa0143" stroke="transparent"></path></g><g transform="matrix(1,0,0,1,68.37193715718853,83.74587633862856)"><svg viewBox="0 0 210.70292854711212 179.95505018423205" height="179.95505018423205" width="210.70292854711212"><g><svg version="1.0" xmlns="http://www.w3.org/2000/svg" xmlns:xlink="http://www.w3.org/1999/xlink" x="0" y="0" viewBox="0 0 100 85.407" enable-background="new 0 0 100 85.407" xml:space="preserve" width="210.70292854711212" height="179.95505018423205" class="icon-z$-0" data-fill-palette-color="accent" id="z$-0"><path d="M100 42.672c0 4.26-1.67 8.128-4.385 11.008-0.466 6.078-4.317 11.208-9.685 13.521v0.057c-6.555 3.817-10.474 10.333-11.667 18.149h-6.061V67.275c0.04-5.652 1.818-9.271 5.544-11.504 1.363-0.784 2.602-1.681 3.658-2.675 2.766 0.994 5.214 2.942 6.771 5.714 0.324 0.545 0.903 0.852 1.477 0.852 0.278 0 0.568-0.068 0.829-0.222 0.83-0.455 1.125-1.488 0.659-2.306h-0.011c-1.744-3.102-4.396-5.391-7.407-6.754 1.545-2.375 2.403-5.203 2.363-8.6 0-0.017 0.023-0.034 0.023-0.057 0-1.534-0.227-3.027-0.636-4.431 3.539-0.676 6.657-2.471 8.952-5 0.636-0.698 0.59-1.772-0.114-2.397-0.699-0.63-1.755-0.574-2.38 0.108-2 2.176-4.698 3.664-7.765 4.073-2.465-4.567-7.049-7.81-12.422-8.401 0.358-2.897 1.664-5.481 3.629-7.447 0.648-0.659 0.648-1.734 0-2.387-0.659-0.665-1.75-0.665-2.408 0-2.516 2.518-4.198 5.88-4.618 9.624-6.311-0.795-11.173-6.152-11.184-12.674 0-0.926-0.767-1.698-1.676-1.698-0.96 0-1.71 0.772-1.71 1.698 0 1.102 0.108 2.153 0.318 3.187-2.392 2.069-5.368 3.114-8.35 3.114-1.471 0-2.948-0.261-4.339-0.767 0 0-0.023-0.006-0.04-0.011-1.715-0.619-3.289-1.604-4.652-2.967-0.653-0.659-1.732-0.659-2.397 0-0.665 0.659-0.665 1.729 0 2.393 1.397 1.392 2.971 2.471 4.646 3.249-0.335 4.22-2.789 7.85-6.22 9.889-1.982-3.011-4.964-5.396-8.628-6.561-0.915-0.284-1.863 0.21-2.153 1.102-0.25 0.892 0.205 1.841 1.108 2.119 2.721 0.863 4.908 2.539 6.481 4.675-1.056 0.284-2.141 0.437-3.294 0.437 0 0 0 0-0.018 0H22.05c-4.351 0-8.35 1.733-11.258 4.568-0.688 0.653-0.704 1.727-0.028 2.392 0.323 0.341 0.767 0.511 1.227 0.511 0.387 0 0.812-0.159 1.142-0.477 2.307-2.25 5.453-3.607 8.918-3.607h0.182 0.005 0.018c8.156 0 14.933-6.074 15.995-13.946 1.159 0.25 2.317 0.386 3.493 0.386 3.312 0 6.652-1.028 9.463-3.062 1.028 2.346 2.653 4.396 4.624 5.987-2.011 2.477-3.192 5.419-3.504 8.429-0.847-0.136-1.738-0.21-2.63-0.21-2.556 0-5.152 0.607-7.566 1.898-0.829 0.438-1.142 1.465-0.704 2.295 0.307 0.562 0.903 0.892 1.511 0.892 0.278 0 0.528-0.062 0.772-0.205 1.943-1.017 3.977-1.5 5.987-1.5 0.897 0 1.783 0.097 2.63 0.278 0.369 3.431 1.852 6.788 4.402 9.458 0.341 0.353 0.778 0.523 1.216 0.523 0.415 0 0.846-0.154 1.182-0.466 0.693-0.653 0.71-1.716 0.051-2.392h-0.011c-2.267-2.397-3.465-5.441-3.544-8.52 0-0.046 0.011-0.08 0-0.131 0-0.062 0-0.125 0-0.188 0-2.989 1.034-5.943 3.079-8.317 2.153 1.074 4.606 1.699 7.203 1.699 0 0 0.011 0.005 0.028 0.005 0 0 0.011 0 0.028 0 7.032 0.023 12.724 5.705 12.752 12.736-1.334-0.352-2.709-0.534-4.118-0.534-2.016 0-4.061 0.369-6.032 1.182-0.875 0.358-1.29 1.34-0.937 2.204 0.357 0.863 1.329 1.284 2.198 0.932 1.579-0.63 3.187-0.937 4.771-0.937 1.278 0 2.545 0.193 3.732 0.562-0.415 1.897-1.227 3.419-2.488 4.771-0.097 0.085-0.188 0.182-0.261 0.295-0.966 0.949-2.125 1.823-3.556 2.692-4.902 2.863-7.254 8.055-7.203 14.418v18.132h-5.783V68.161c0-6.333-3.97-12.339-8.969-14.475-2.386-0.926-4.874-2.477-6.686-4.505-2.584 1.755-5.686 2.789-9.021 2.789-3.346 0-6.447-1.017-9.014-2.76-2.556 1.681-5.641 2.664-8.94 2.664C7.333 51.875 0 44.524 0 35.464c0-6.772 4.095-12.583 9.958-15.083 1.585-7.227 7.986-12.634 15.688-12.634 0.409 0 0.784 0.034 1.165 0.057 2.903-4.243 7.782-7.027 13.309-7.027 2.738 0 5.306 0.682 7.561 1.897C50.225 0.982 53.269 0 56.546 0c4.209 0 8.043 1.642 10.917 4.306 1.204-0.29 2.448-0.46 3.749-0.46 6.504 0 12.127 3.914 14.638 9.52 6.601 2 11.406 8.124 11.406 15.372 0 1.454-0.193 2.857-0.551 4.192C98.762 35.635 100 39.009 100 42.672z" fill="#fa0143" data-fill-palette-color="accent"></path></svg></g></svg></g></svg></g></svg></g></svg></g><defs></defs></svg><rect width="395.52" height="177.05727611318602" fill="none" stroke="none" visibility="hidden"></rect></g></svg></g></svg>